<?xml version="1.0" encoding="UTF-8" standalone="no"?>
<svg
   xmlns:dc="http://purl.org/dc/elements/1.1/"
   xmlns:cc="http://creativecommons.org/ns#"
   xmlns:rdf="http://www.w3.org/1999/02/22-rdf-syntax-ns#"
   xmlns:svg="http://www.w3.org/2000/svg"
   xmlns="http://www.w3.org/2000/svg"
   xmlns:sodipodi="http://sodipodi.sourceforge.net/DTD/sodipodi-0.dtd"
   xmlns:inkscape="http://www.inkscape.org/namespaces/inkscape"
   sodipodi:docname="gdmeter_logo.svg"
   width="61.105114mm"
   height="59.837296mm"
   viewBox="0 0 61.105114 59.837296"
   version="1.1"
   id="svg1181"
   inkscape:version="1.0 (4035a4fb49, 2020-05-01)">
  <defs
     id="defs1175">
    <inkscape:path-effect
       fuse_tolerance="0"
       hide_knot="false"
       vertical_pattern="false"
       prop_units="false"
       tang_offset="0"
       normal_offset="0"
       spacing="0"
       scale_y_rel="false"
       prop_scale="1"
       copytype="repeated_stretched"
       pattern="m 9.1764848,110.6817 1.8967322,-0.001 0.335898,2.87975 H 8.8803888 Z"
       lpeversion="1"
       is_visible="true"
       id="path-effect2480"
       effect="skeletal" />
  </defs>
  <sodipodi:namedview
     fit-margin-bottom="0"
     fit-margin-right="0"
     fit-margin-left="0"
     fit-margin-top="0"
     id="base"
     pagecolor="#ffffff"
     bordercolor="#666666"
     borderopacity="1.0"
     inkscape:pageopacity="0.0"
     inkscape:pageshadow="2"
     inkscape:zoom="2"
     inkscape:cx="34.728823"
     inkscape:cy="143.93193"
     inkscape:document-units="mm"
     inkscape:current-layer="layer1"
     inkscape:document-rotation="0"
     showgrid="false"
     showborder="true"
     inkscape:window-width="1884"
     inkscape:window-height="1020"
     inkscape:window-x="16"
     inkscape:window-y="40"
     inkscape:window-maximized="1" />
  <metadata
     id="metadata1178">
    <rdf:RDF>
      <cc:Work
         rdf:about="">
        <dc:format>image/svg+xml</dc:format>
        <dc:type
           rdf:resource="http://purl.org/dc/dcmitype/StillImage" />
        <dc:title></dc:title>
      </cc:Work>
    </rdf:RDF>
  </metadata>
  <g
     transform="translate(-54.475045,-96.359238)"
     inkscape:label="Layer 1"
     inkscape:groupmode="layer"
     id="layer1">
    <g
       inkscape:export-ydpi="80"
       inkscape:export-xdpi="80"
       id="g2503">
      <path
         style="fill:#404040;stroke:none;stroke-width:0.264583px;stroke-linecap:butt;stroke-linejoin:miter;stroke-opacity:1"
         d="m 112.10632,140.24975 c 0.53774,5.97732 -2.58011,8.95585 -5.71441,11.21049 -9.159312,6.58867 -31.170972,5.50634 -39.517315,1.58706 -4.584519,-2.1528 -9.925914,-5.95585 -8.746744,-13.03296 l 8.928648,0.90009 0.32527,4.63313 c 0,0 -0.220294,0.17703 0.373541,0.48473 0.593834,0.3077 11.477878,1.09384 11.477878,1.09384 0,0 1.04265,-0.24963 1.09952,-0.72018 0.0569,-0.47056 0.46964,-4.31799 0.46964,-4.31799 l 8.66522,-0.0811 0.38383,3.88908 c 0,0 0.0834,0.80466 0.8111,0.98658 0.72771,0.18192 11.462652,-0.62603 11.462652,-0.62603 0,0 0.77324,-0.16373 0.85802,-0.75691 0.0848,-0.59317 0.24918,-4.63628 0.24918,-4.63628 z"
         id="path1483"
         sodipodi:nodetypes="cssc" />
      <path
         style="fill:#404040;stroke:none;stroke-width:0.264583px;stroke-linecap:butt;stroke-linejoin:miter;stroke-opacity:1"
         d="m 58.189705,137.75881 10.000043,1.02292 c 0,0 1.097145,0.11597 1.127731,0.8983 0.03059,0.78233 -0.08402,4.63857 -0.08402,4.63857 l 8.876769,0.47219 0.64154,-3.70267 c 0,0 0.036,-0.44775 0.49813,-0.83279 0.46218,-0.38504 11.33421,-0.3955 11.33421,-0.3955 0,0 0.4765,-0.0636 0.72638,0.90804 0.24987,0.9717 0.73111,4.12641 0.73111,4.12641 l 8.562522,-0.54596 0.40242,-4.60902 c 0,0 -0.22562,0.18376 0.20878,-0.35729 0.43441,-0.54105 10.96986,-1.5441 10.96986,-1.5441 l -0.23638,-16.21746 3.63136,-5.64814 -5.22557,-6.85132 -5.50777,3.29615 c 0,0 -0.78358,-1.03163 -3.1767,-2.68505 -1.763102,-1.21813 -2.585652,-1.57619 -2.585652,-1.57619 -4.53344,-1.99281 -6.61151,-3.0022 -10.65308,-3.71985 0,0 -2.09372,-0.2711 -3.21689,-0.28106 -1.08425,-0.01 -3.32589,0.10113 -3.32589,0.10113 -3.0328,0.3561 -7.20097,1.29105 -10.88523,3.63611 0,0 -2.667886,1.89902 -4.150114,3.21222 -1.482225,1.3132 -1.476769,1.18093 -1.476769,1.18093 l -5.49792,-3.20375 -5.40353,7.07181 3.727117,5.4877 z"
         id="path1485"
         sodipodi:nodetypes="ccscccscscccscccccsccsccsccccc" />
      <rect
         style="opacity:0.99;fill:#ffffff;stroke:none;stroke-width:1.0569;stroke-linecap:round;stroke-dashoffset:71.8108;paint-order:stroke fill markers"
         id="rect1489"
         width="3.6069422"
         height="8.7817221"
         x="83.241821"
         y="125.89429"
         ry="2.0145481"
         rx="1.8034711" />
      <path
         style="fill:#ffffff;stroke:#ffffff;stroke-width:0.264583px;stroke-linecap:butt;stroke-linejoin:miter;stroke-opacity:1"
         d="m 85.132608,124.94818 c 0,0 1.23794,0.21735 1.77428,0.79599 0.68781,0.74206 0.79381,1.94241 0.79381,1.94241 l 12.16424,-14.17021 z"
         id="path1493"
         sodipodi:nodetypes="csccc" />
      <path
         sodipodi:nodetypes="csccc"
         id="path1495"
         d="m 82.271198,132.10796 c 0,0 0.0197,-1.11288 0.003,-1.90169 -0.0223,-1.01156 0.009,-2.07317 0.009,-2.07317 l -11.711745,2.48486 z"
         style="fill:#ffffff;stroke:#ffffff;stroke-width:0.264583px;stroke-linecap:butt;stroke-linejoin:miter;stroke-opacity:1" />
      <rect
         style="opacity:0.99;fill:#ffffff;stroke:#404040;stroke-width:5;stroke-linecap:round;stroke-miterlimit:4;stroke-dasharray:none;stroke-dashoffset:71.8108;paint-order:stroke fill markers"
         id="rect1499"
         width="27.277353"
         height="11.377457"
         x="71.099632"
         y="98.859238"
         ry="5.6887283" />
      <path
         style="opacity:0.99;fill:#ffffff;stroke:#404040;stroke-width:0.327983;stroke-linecap:round;stroke-miterlimit:4;stroke-dasharray:none;stroke-dashoffset:71.8108;paint-order:stroke fill markers"
         id="path1505"
         sodipodi:type="arc"
         sodipodi:cx="101.29274"
         sodipodi:cy="126.89727"
         sodipodi:rx="6.1807561"
         sodipodi:ry="5.8138494"
         sodipodi:start="5.1817604"
         sodipodi:end="5.1745522"
         sodipodi:open="true"
         sodipodi:arc-type="arc"
         d="m 105.06227,120.60224 c 0.74208,0.42174 1.39045,0.96372 1.92995,1.59025 -0.62921,0.73069 -1.2991,1.42184 -2.00497,2.0712 -0.4104,-0.54609 -0.92859,-0.99161 -1.51877,-1.25195 0.48228,-0.83559 1.0148,-1.63924 1.59379,-2.4095 z m 2.43133,2.24412 c 0.4652,0.67879 0.8165,1.43024 1.03876,2.21866 -0.87534,0.40333 -1.76791,0.75544 -2.67301,1.05409 -0.15906,-0.66265 -0.46169,-1.30932 -0.8721,-1.85542 0.80817,-0.51268 1.64488,-0.9856 2.50635,-1.41733 z m 1.21609,3.018 c 0.13456,0.80895 0.13505,1.64299 -0.0137,2.46641 -0.94976,-0.0232 -1.89332,-0.10922 -2.82597,-0.2604 0.16386,-0.61 0.14837,-1.28862 -0.0107,-1.95126 0.94453,-0.13297 1.89591,-0.21837 2.85034,-0.25475 z m -0.21388,3.28426 c -0.10926,0.35523 -0.24802,0.70615 -0.41755,1.04978 -0.23877,0.41914 -0.5131,0.8074 -0.81724,1.16339 -0.81801,-0.49901 -1.599,-1.04606 -2.34178,-1.63689 0.25418,-0.26567 0.46591,-0.56277 0.62219,-0.88821 0.14718,-0.23687 0.25566,-0.4948 0.3286,-0.76632 0.89138,0.30355 1.7679,0.66249 2.62578,1.07825 z m -1.80622,2.81043 c -0.59966,0.56383 -1.28282,1.02322 -2.01732,1.3705 -0.53209,-0.80559 -1.02069,-1.63787 -1.46458,-2.49255 0.65755,-0.25657 1.25347,-0.6333 1.71155,-1.1121 0.62805,0.71026 1.21839,1.45611 1.77035,2.23415 z m -2.76788,1.67875 c -0.76503,0.27167 -1.57069,0.42868 -2.38483,0.46337 -0.18724,-0.95375 -0.32449,-1.91284 -0.41056,-2.87297 0.70462,0.002 1.42381,-0.13463 2.08137,-0.3912 0.27943,0.9185 0.51766,1.85323 0.71402,2.8008 z m -3.20021,0.4557 c -0.816094,-0.0477 -1.629954,-0.22019 -2.409435,-0.52525 0.216555,-0.94348 0.489578,-1.87093 0.820271,-2.77806 1.1e-5,-3e-5 2.1e-5,-6e-5 3.1e-5,-9e-5 3e-6,0 5e-6,0 8e-6,0 0.59928,0.2963 1.289325,0.43631 1.993945,0.4381 -0.09,0.95935 -0.22475,1.91558 -0.40482,2.8653 z m -3.17453,-0.88832 c -0.743505,-0.41903 -1.393826,-0.95858 -1.935657,-1.58307 0.626539,-0.7331 1.293883,-1.42683 1.997332,-2.07892 0.41259,0.54466 0.932547,0.98844 1.523722,1.24691 -0.479391,0.83724 -1.009116,1.64275 -1.585397,2.41508 z m -2.439479,-2.23504 c -0.467751,-0.67702 -0.821934,-1.42709 -1.047243,-2.21463 0.873765,-0.40676 1.764956,-0.76237 2.668874,-1.06458 0.16171,0.66204 0.466933,1.30759 0.879523,1.85226 -0.806302,0.51577 -1.641278,0.9919 -2.501154,1.42695 z m -1.227676,-3.01325 c -0.137708,-0.80841 -0.141465,-1.6424 0.004,-2.46638 0.949795,0.0194 1.893639,0.10178 2.826832,0.24931 -0.161467,0.61057 -0.143272,1.28908 0.01844,1.95111 -0.944012,0.13668 -1.895039,0.22582 -2.849307,0.26596 z m 0.20101,-3.28499 c 0.107954,-0.35595 0.24548,-0.70771 0.41386,-1.0523 0.237115,-0.41978 0.509856,-0.80881 0.812509,-1.16571 0.819833,0.49591 1.602795,1.04002 2.34767,1.62807 -0.25297,0.2664 -0.463398,0.56406 -0.618289,0.88987 -0.146404,0.23755 -0.253969,0.49603 -0.32589,0.76799 -0.892521,-0.30005 -1.7704,-0.65553 -2.62986,-1.06792 z m 1.795646,-2.8174 c 0.597641,-0.56604 1.279181,-1.02787 2.012479,-1.37773 0.534868,0.80369 1.026317,1.63424 1.473132,2.48737 -0.656601,0.25876 -1.25107,0.63747 -1.707218,1.11782 -0.630634,-0.70787 -1.22366,-1.45149 -1.778393,-2.22746 z m 2.761979,-1.68861 c 0.7641,-0.27433 1.56924,-0.43412 2.38329,-0.4716 0.19049,0.95315 0.33101,1.9118 0.42034,2.87168 -0.70467,5.8e-4 -1.4234,0.1394 -2.079998,0.39817 -0.282588,-0.91749 -0.524027,-1.85137 -0.723632,-2.79825 z m 3.19872,-0.46671 c 0.81627,0.0449 1.63073,0.21462 2.41124,0.51701 -0.21331,0.94428 -0.48313,1.87271 -0.81069,2.78101 -0.60035,-0.29417 -1.29096,-0.43182 -1.99564,-0.43123 0.0868,-0.95969 0.21825,-1.91642 0.39509,-2.86679 z"
         inkscape:path-effect="#path-effect2480" />
    </g>
  </g>
</svg>
