<svg height="16" viewBox="0 0 4.2333335 4.2333334" width="16" xmlns="http://www.w3.org/2000/svg"><g fill="#fff" transform="translate(-54.475045 -151.9632)"><rect height="1.445421" opacity=".99" rx=".296841" ry=".331583" width=".593682" x="54.480984" y="154.39587"/><path d="m54.792195 154.24015s.203754.0357.292034.13106c.113214.1219.130649.3197.130649.3197l2.002165-2.33231z" stroke="#fff" stroke-width=".043549"/><path d="m105.06227 120.60224c.74208.42174 1.39045.96372 1.92995 1.59025-.62921.73069-1.2991 1.42184-2.00497 2.0712-.4104-.54609-.92859-.99161-1.51877-1.25195.48228-.83559 1.0148-1.63924 1.59379-2.4095zm2.43133 2.24412c.4652.67879.8165 1.43024 1.03876 2.21866-.87534.40333-1.76791.75544-2.67301 1.05409-.15906-.66265-.46169-1.30932-.8721-1.85542.80817-.51268 1.64488-.9856 2.50635-1.41733zm1.21609 3.018c.13456.80895.13505 1.64299-.0137 2.46641-.94976-.0232-1.89332-.10922-2.82597-.2604.16386-.61.14837-1.28862-.0107-1.95126.94453-.13297 1.89591-.21837 2.85034-.25475zm-.21388 3.28426c-.10926.35523-.24802.70615-.41755 1.04978-.23877.41914-.5131.8074-.81724 1.16339-.81801-.49901-1.599-1.04606-2.34178-1.63689.25418-.26567.46591-.56277.62219-.88821.14718-.23687.25566-.4948.3286-.76632.89138.30355 1.7679.66249 2.62578 1.07825zm-1.80622 2.81043c-.59966.56383-1.28282 1.02322-2.01732 1.3705-.53209-.80559-1.02069-1.63787-1.46458-2.49255.65755-.25657 1.25347-.6333 1.71155-1.1121.62805.71026 1.21839 1.45611 1.77035 2.23415zm-2.76788 1.67875c-.76503.27167-1.57069.42868-2.38483.46337-.18724-.95375-.32449-1.91284-.41056-2.87297.70462.002 1.42381-.13463 2.08137-.3912.27943.9185.51766 1.85323.71402 2.8008zm-3.20021.4557c-.816094-.0477-1.629954-.22019-2.409435-.52525.216555-.94348.489578-1.87093.820271-2.77806.000011-.00003.000021-.00006.000031-.00009h.000008c.59928.2963 1.289325.43631 1.993945.4381-.09.95935-.22475 1.91558-.40482 2.8653zm-3.17453-.88832c-.743505-.41903-1.393826-.95858-1.935657-1.58307.626539-.7331 1.293883-1.42683 1.997332-2.07892.41259.54466.932547.98844 1.523722 1.24691-.479391.83724-1.009116 1.64275-1.585397 2.41508zm-2.439479-2.23504c-.467751-.67702-.821934-1.42709-1.047243-2.21463.873765-.40676 1.764956-.76237 2.668874-1.06458.16171.66204.466933 1.30759.879523 1.85226-.806302.51577-1.641278.9919-2.501154 1.42695zm-1.227676-3.01325c-.137708-.80841-.141465-1.6424.004-2.46638.949795.0194 1.893639.10178 2.826832.24931-.161467.61057-.143272 1.28908.01844 1.95111-.944012.13668-1.895039.22582-2.849307.26596zm.20101-3.28499c.107954-.35595.24548-.70771.41386-1.0523.237115-.41978.509856-.80881.812509-1.16571.819833.49591 1.602795 1.04002 2.34767 1.62807-.25297.2664-.463398.56406-.618289.88987-.146404.23755-.253969.49603-.32589.76799-.892521-.30005-1.7704-.65553-2.62986-1.06792zm1.795646-2.8174c.597641-.56604 1.279181-1.02787 2.012479-1.37773.534868.80369 1.026317 1.63424 1.473132 2.48737-.656601.25876-1.25107.63747-1.707218 1.11782-.630634-.70787-1.22366-1.45149-1.778393-2.22746zm2.761979-1.68861c.7641-.27433 1.56924-.43412 2.38329-.4716.19049.95315.33101 1.9118.42034 2.87168-.70467.00058-1.4234.1394-2.079998.39817-.282588-.91749-.524027-1.85137-.723632-2.79825zm3.19872-.46671c.81627.0449 1.63073.21462 2.41124.51701-.21331.94428-.48313 1.87271-.81069 2.78101-.60035-.29417-1.29096-.43182-1.99564-.43123.0868-.95969.21825-1.91642.39509-2.86679z" opacity=".99" stroke="#404040" stroke-dashoffset="71.810799" stroke-linecap="round" stroke-width=".327983" transform="matrix(.16459426 0 0 .16459426 40.779854 133.67441)"/></g></svg>
